# xmcd CD Database Entry
#
# Track frame offsets:
# 150
# 11100
# 27763
# 52040
# 64865
# 80408
# 101583
# 114285
# 137139
# 153983
#
# Disc length: 2351 seconds
#
# Revision: 2
# Processed by: cddbd v1.5.1PL2 Copyright (c) Steve Scherf et al.
# Submitted via: freedbtool 1.11
#
DISCID=7c092d0a
DTITLE=Stevie Ray Vaughan - Texas Flood
DYEAR=1900
DGENRE=
TTITLE0=Love Struck Baby
TTITLE1=Pride and Joy
TTITLE2=Texas Flood
TTITLE3=Tell Me
TTITLE4=Testify
TTITLE5=Rude Mood
TTITLE6=Mary Had a Little Lamb
TTITLE7=Dirty Pool
TTITLE8=I'm Cryin'
TTITLE9=Lenny
EXTD=
EXTT0=
EXTT1=
EXTT2=
EXTT3=
EXTT4=
EXTT5=
EXTT6=
EXTT7=
EXTT8=
EXTT9=
PLAYORDER=
